{"title":"Justin Bieber - I ll Show You [1080p]","uid":12684105,"size":79281018,"categoryP":"video","categoryS":"music_videos","magnet":"?xt=urn:btih:cd9b1dd8cd856d8bb3b3e52c81f1850bd72dd706&amp;dn=Justin+Bieber+-+I+ll+Show+You+%5B1080p%5D&amp;tr=udp%3A%2F%2Ftracker.leechers-paradise.org%3A6969&amp;tr=udp%3A%2F%2Fzer0day.ch%3A1337&amp;tr=udp%3A%2F%2Fopen.demonii.com%3A1337&amp;tr=udp%3A%2F%2Ftracker.coppersurfer.tk%3A6969&amp;tr=udp%3A%2F%2Fexodus.desync.com%3A6969","seeders":0,"leechers":1,"uploader":"MusicVideos-HQ","files":1,"time":1446580567,"description":"Capturas: http://i.imgur.com/kT38pR3.jpg\r\n\r\n\r\nGeneral\r\n\r\nFormat                         : MPEG-4\r\nFormat profile                 : Base Media\r\nCodec ID                       : isom\r\nFile size                      : 75.6 MiB\r\nDuration                       : 3mn 20s\r\nOverall bit rate               : 3 157 Kbps\r\nWriting application            : Lavf55.33.100\r\n\r\nVideo\r\nID                             : 1\r\nFormat                         : AVC\r\nFormat/Info                    : Advanced Video Codec\r\nFormat profile                 :   \r\nFormat settings, CABAC         : Yes\r\nFormat settings, ReFrames      : 3 frames\r\nCodec ID                       : avc1\r\nCodec ID/Info                  : Advanced Video Coding\r\nDuration                       : 3mn 20s\r\nBit rate                       : 3 026 Kbps\r\nWidth                          : 1 920 pixels\r\nHeight                         : 1 080 pixels\r\nDisplay aspect ratio           : 16:9\r\nFrame rate mode                : Variable\r\nFrame rate                     : 23.976 fps\r\nMinimum frame rate             : 23.974 fps\r\nMaximum frame rate             : 90 000.000 fps\r\nColor space                    : YUV\r\nChroma subsampling             : 4:2:0\r\nBit depth                      : 8 bits\r\nScan type                      : Progressive\r\nBits/(Pixel*Frame)             : 0.061\r\nStream size                    : 72.4 MiB (96%)\r\nColor range                    : Limited\r\nColor primaries                : BT.709\r\nTransfer characteristics       : BT.709\r\nMatrix coefficients            : BT.709\r\n\r\nAudio\r\nID                             : 2\r\nFormat                         : AAC\r\nFormat/Info                    : Advanced Audio Codec\r\nFormat profile                 : LC\r\nCodec ID                       : 40\r\nDuration                       : 3mn 20s\r\nBit rate mode                  : Constant\r\nBit rate                       : 126 Kbps\r\nChannel(s)                     : 2 channels\r\nChannel positions              : Front: L R\r\nSampling rate                  : 44.1 KHz\r\nCompression mode               : Lossy\r\nStream size                    : 3.01 MiB (4%)","torrent":{"xt":"urn:btih:cd9b1dd8cd856d8bb3b3e52c81f1850bd72dd706","amp;dn":"Justin+Bieber+-+I+ll+Show+You+%5B1080p%5D","amp;tr":["udp%3A%2F%2Ftracker.leechers-paradise.org%3A6969","udp%3A%2F%2Fzer0day.ch%3A1337","udp%3A%2F%2Fopen.demonii.com%3A1337","udp%3A%2F%2Ftracker.coppersurfer.tk%3A6969","udp%3A%2F%2Fexodus.desync.com%3A6969"],"infoHash":"cd9b1dd8cd856d8bb3b3e52c81f1850bd72dd706","infoHashBuffer":{"type":"Buffer","data":[205,155,29,216,205,133,109,139,179,179,229,44,129,241,133,11,215,45,215,6]},"announce":[],"urlList":[]}}